<svg xmlns="http://www.w3.org/2000/svg" width="456.25" height="326.05" viewBox="0 0 456.25 326.05"><title>carrie-forde-logo_white</title><polygon points="350.96 32.29 350.96 0 148.25 0 115.96 0 115.96 32.29 115.96 202.7 115.96 235 148.25 235 350.96 235 350.96 202.7 148.25 202.7 148.25 32.29 350.96 32.29" fill="#fff"/><polygon points="350.96 80.74 350.96 56.52 196.7 56.52 172.48 56.52 172.48 80.74 172.48 105.39 172.48 129.61 172.48 178.48 196.7 178.48 196.7 129.61 350.96 129.61 350.96 105.39 196.7 105.39 196.7 80.74 350.96 80.74" fill="#fff"/><rect x="221.47" y="153.06" width="129.48" height="24.22" fill="#fff"/><text transform="translate(0 326.05)" font-size="60" fill="#fff" font-family="Montserrat-Regular, Montserrat"><tspan letter-spacing="0em">C</tspan><tspan x="41.52" y="0">ARRIE FORDE</tspan></text></svg>